<svg width="2000" height="323" viewBox="0 0 2000 323" fill="none" xmlns="http://www.w3.org/2000/svg">
<path d="M1000.99 314.226L2000.32 176.868V-29.2833H-17.6387L-13.4433 176.868L983.371 314.226C988.824 315.612 995.537 315.612 1000.99 314.226Z" fill="#2496ED"/>
<mask id="mask0" mask-type="alpha" maskUnits="userSpaceOnUse" x="-30" y="-43" width="2061" height="419">
<path d="M1011.48 374.652L2030.84 114.5V-42.5982H-29.2803V114.547L990.188 374.698C996.691 376.362 1004.87 376.362 1011.48 374.652Z" fill="white"/>
</mask>
<g mask="url(#mask0)">
<g opacity="0.5">
<g opacity="0.5">
<path opacity="0.5" d="M1368.71 56.1085L949.703 -50.5502V-50.5965L248.452 128.139L248.347 270.906L528.386 199.569V107.196V107.011L949.074 -0.110397L1409.09 116.904L2067.03 -50.5965V-121.702L1368.71 56.1085Z" fill="#8F9DAA"/>
<path opacity="0.5" d="M807.9 -157.302V-157.255L1087.63 -86.1495L947.815 -50.5503V-50.5041L1367.56 56.2472L2067.03 -121.702V-121.749L1927.11 -157.348L1647.28 -86.1495L1367.56 -14.9974L1227.75 -50.5503L1647.28 -157.255V-157.348L1507.37 -192.901L1227.64 -121.749H1227.54L1087.73 -157.348V-157.302V-157.348L1227.64 -192.901V-192.947L1087.73 -228.546L807.9 -157.302Z" fill="#F1F1F3"/>
<path opacity="0.5" d="M947.816 72.7061L813.25 107.057L947.816 72.7061Z" fill="#2496ED"/>
<path opacity="0.5" d="M528.176 -85.9182L248.347 -14.5349V56.7096L528.176 -14.8123V-85.9182Z" fill="#8F9DAA"/>
<path opacity="0.5" d="M248.032 56.1548L248.347 56.2473V-14.8586L-173.495 -121.702V-50.504L248.032 56.1548Z" fill="#ABBCCC"/>
<path opacity="0.5" d="M-314.459 127.815L248.346 270.906V128.093L-314.144 -14.8586L-314.459 127.815Z" fill="#ABBCCC"/>
<path opacity="0.5" d="M246.983 -229.008L-174.125 -121.749V-121.61L246.878 -14.3038L527.442 -85.7796L528.071 -85.9183L667.881 -50.2729L667.461 -50.1804L246.983 57.1257L246.668 57.0332L-174.125 -50.0417L-314.459 -14.3963L247.088 128.74L948.864 -50.3191H948.969L809.264 -85.872L246.983 -229.008ZM112.207 -121.656L246.878 -156.007L381.549 -121.656L246.878 -87.3052L112.207 -121.656Z" fill="#F1F1F3"/>
<path opacity="0.5" d="M947.816 357.499L1087.52 321.669V250.24L1227.65 214.455H1227.54V143.35L947.816 214.733V357.499Z" fill="#8F9DAA"/>
<path opacity="0.5" d="M1228.38 285.839V357.222L1087.73 392.96V464.389L1369.13 392.914V321.53V321.484L1650.54 250.055V178.625L1228.38 285.839Z" fill="#8F9DAA"/>
<path opacity="0.5" d="M1227.75 213.947L1368.61 178.117L1228.27 142.379L1227.64 142.564V213.901L1227.75 213.947Z" fill="#ABBCCC"/>
<path opacity="0.5" d="M1087.73 321.392L1228.69 357.037V285.839L1087.73 250.193V321.392Z" fill="#ABBCCC"/>
<path opacity="0.5" d="M527.021 199.106V320.929L1088.78 463.927V392.451L948.549 356.76V213.854L527.021 106.595V199.106ZM670.397 211.497L813.563 247.928L771.82 258.608L813.668 247.928V247.974L813.773 248.02L813.668 248.067L813.878 320.929L813.773 320.883L670.502 284.544L670.607 284.498L744.655 265.589L670.397 284.452V211.497Z" fill="#ABBCCC"/>
<path opacity="0.5" d="M813.25 248.343L813.355 248.298H813.25V248.343Z" fill="#2496ED"/>
<path opacity="0.5" d="M812.202 247.327L669.141 211.127V283.62L743.293 264.849L770.458 257.961L812.202 247.327Z" fill="#8F9DAA"/>
<path opacity="0.5" d="M811.992 248.344V248.298L770.248 258.978L743.084 265.959L669.141 284.868L812.097 321.253H812.202L811.992 248.39V248.344Z" fill="#F1F1F3"/>
<path opacity="0.5" d="M1087.52 392.821L1227.65 357.037L1087.52 321.253L947.816 357.13L1087.52 392.821Z" fill="#F1F1F3"/>
<path opacity="0.5" d="M947.5 140.807L812.934 106.502L947.5 72.1975L1082.07 106.502L947.5 140.807ZM527.021 106.456V106.595L947.395 213.762L1227.54 142.332L1228.17 142.194L1367.77 177.793L1087.31 249.269L1227.54 285.007L1648.33 177.7L1407.2 116.303L947.395 -0.75769L527.021 106.456Z" fill="#F1F1F3"/>
<path opacity="0.5" d="M813.25 107.103L947.816 141.454V72.7061L813.25 107.103Z" fill="#8F9DAA"/>
<path opacity="0.5" d="M947.816 141.454L1082.38 107.103L947.816 72.7061V141.454Z" fill="#ABBCCC"/>
</g>
</g>
</g>
<mask id="mask1" mask-type="alpha" maskUnits="userSpaceOnUse" x="-30" y="-43" width="2061" height="419">
<path d="M1011.48 374.652L2030.84 114.5V-42.5982H-29.2803V114.547L990.188 374.698C996.691 376.362 1004.87 376.362 1011.48 374.652Z" fill="white"/>
</mask>
<g mask="url(#mask1)">
<path opacity="0.86" d="M1273.16 374.652L2292.53 114.5V-42.5982H232.299V114.547L1251.77 374.698C1258.38 376.362 1266.56 376.362 1273.16 374.652Z" fill="url(#paint0_linear)"/>
</g>
<path opacity="0.86" d="M1030.5 452.2L2261 448.411V-45.3039H-226V452.2" fill="#59C4EA"/>
<defs>
<linearGradient id="paint0_linear" x1="357.284" y1="-73.1013" x2="553.445" y2="730.291" gradientUnits="userSpaceOnUse">
<stop stop-color="white" stop-opacity="0"/>
<stop offset="0.5071" stop-color="white" stop-opacity="0.5412"/>
<stop offset="1" stop-color="white"/>
</linearGradient>
</defs>
</svg>
