<svg width="45" height="58" viewBox="0 0 45 58" fill="none" xmlns="http://www.w3.org/2000/svg">
<path fill-rule="evenodd" clip-rule="evenodd" d="M3.65556 20.7538C5.32571 17.497 6.97498 15.472 9.14617 15.8686L6.99585 14.6578C14.9499 4.57426 30.524 5.05443 37.5595 14.6786L35.0334 16.0774C37.2046 15.7016 38.8539 17.7058 40.5032 20.9208L40.524 20.9834H40.5449L43.2172 20.2319C38.6451 -0.916343 6.76621 -1.18774 1.25472 20.1066L3.65556 20.7538ZM15.5345 44.0732V47.8728C15.3675 48.0398 14.3863 49.2924 12.5908 49.1463H12.5491C18.9374 52.3822 25.3466 52.3822 31.7349 49.1672H31.6096C29.8142 49.3133 28.833 48.0607 28.666 47.8937V44.0941C29 45.2006 33.0919 46.3697 37.142 45.6807L37.1838 49.877C27.1629 57.4553 17.1211 57.4553 7.07936 49.8561L7.12111 45.7225L7.07936 45.639H7.12111V45.5764L7.20462 45.639C11.1921 46.3279 15.2004 45.1797 15.5345 44.0732ZM21.9854 35.2632V32.3404V35.2632ZM25.5762 29.2715H41.4217C39 33.9271 27.3716 34.6369 25.5762 29.2715ZM21.0042 37.6014C20.9833 37.7893 21.0877 37.9772 21.3382 37.9563L21.213 38.0189C20.9207 38.2277 20.8998 38.7914 21.3382 38.7496L21.213 38.8123C20.9207 39.021 20.8998 39.5847 21.3382 39.5429L21.213 39.6056C20.9207 39.8143 20.8998 40.378 21.3382 40.3363L21.213 40.3989C20.9207 40.6077 20.8998 41.1713 21.3382 41.1296L21.213 41.1922C20.9207 41.401 20.8998 41.9647 21.3382 41.9229L21.213 41.9855C20.9416 42.1943 20.8581 42.7371 21.4009 42.6536L21.3174 42.6954C21.1503 42.7162 20.9625 42.758 20.8163 42.7997C20.5867 42.8415 20.5449 43.2173 20.8372 43.259C20.6493 43.2799 20.6702 43.6139 20.8163 43.7601C21.3174 44.3237 22.7579 44.3237 23.1963 43.7392C23.3424 43.5513 23.405 43.2799 23.2171 43.259C23.5094 43.2173 23.5094 42.8624 23.1963 42.7789C23.0501 42.7371 22.9249 42.7162 22.7787 42.6954C23.0293 42.4657 23.071 42.069 22.737 41.9229C23.0084 41.7141 23.071 41.2548 22.737 41.1296C23.0084 40.9208 23.071 40.4615 22.737 40.3363C23.0084 40.1275 23.071 39.6682 22.737 39.5429C23.0084 39.3342 23.071 38.8749 22.737 38.7496C23.0084 38.5409 23.071 38.0816 22.737 37.9563C22.8622 37.8519 22.9457 37.7058 22.9666 37.5805H23.1963V37.3926L25.9311 37.7893L24.9708 42.4031L32.0898 44.2194L33.1128 36.3905C33.5721 33.8853 28.3946 32.4657 26.5992 34.8874V34.7622L23.2171 35.3885V36.4949V35.2006H23.071V32.424H23.1128C23.5303 32.424 23.5303 32.424 23.5929 32.4866C23.8643 32.3196 23.8643 32.069 24.0105 31.7768C24.5533 31.3801 24.6994 31.1087 24.0522 30.9208C24.0105 30.545 24.1775 30.2528 24.3027 29.877C24.6785 29.8143 25.1378 30.1484 24.8247 29.3551C24.2401 28.854 24.2819 28.6661 24.428 27.8728C24.595 27.8519 24.595 27.8937 24.7203 28.0189C25.2422 27.9772 25.451 27.4344 25.8894 27.1421C25.952 27.163 26.0146 27.2047 26.0981 27.2256C26.0981 27.664 26.0146 28.0398 26.4531 28.2277C26.4531 28.2486 26.4531 28.2695 26.4531 28.2903C26.7245 28.3947 26.9959 28.52 27.2255 28.2903C28.0188 28.3321 28.332 28.5617 29.0418 28.9793C29.2297 28.9793 29.4176 28.9793 29.6055 28.9793C29.8769 28.854 30.1691 28.7079 30.4405 28.5826C30.8372 28.5617 33.0501 28.8958 33.1336 28.9793C33.1754 28.9793 33.2171 29.0002 33.2798 29.0002C33.3215 29.0002 33.3424 29.021 33.3842 29.021C34.2819 29.021 35.2005 29.021 36.0982 29.021C36.4322 29.0002 36.7662 29.0002 37.1002 29.0002H37.1211C37.3716 28.52 37.4343 27.9981 37.0585 27.5805C36.6827 27.5388 36.6827 27.5388 36.6201 27.4761C36.641 27.3509 36.641 27.3509 36.7662 27.2465C36.9959 26.8081 36.7662 26.6619 36.4322 26.4114C35.9938 25.1797 35.785 23.8853 35.3466 22.6536C35.2631 21.9647 35.2005 21.2548 34.9917 20.5868C34.6159 20.0231 34.2192 19.4803 33.8643 18.9166C33.7808 18.3321 33.6764 18.0816 33.0501 17.9563C32.904 17.6223 32.737 17.5805 32.4238 17.4344L32.2151 17.3509C31.4635 17.2256 30.6284 17.2674 29.9395 16.8707C29.1462 16.8707 28.3737 16.3488 27.7683 17.0377C26.975 17.0795 26.1817 17.1421 25.4092 17.1839C25.1378 17.0169 25.0126 17.0169 24.5533 16.7455C24.4906 16.7663 24.4906 16.7663 24.3862 16.9751C24.094 16.996 23.8017 17.0169 23.5303 17.0169C23.4259 17.1004 23.2589 17.1839 23.1336 17.1839V15.4302C23.4259 14.7622 23.9061 14.4072 24.6159 14.4072H29.7307L35.1378 14.8248C35.7641 14.8039 35.9103 14.0732 35.3466 13.8645L32.6326 12.7162C31.3591 12.0482 31.3591 13.1964 30.4823 13.3217L23.0084 13.3425V10.8582L21.9854 8.06069V17.0795V8.06069L20.9625 10.8582V13.3634L13.5303 13.3217C12.6535 13.1964 12.6743 12.0482 11.4844 12.7371L8.77038 13.8853C8.22758 14.0941 8.35285 14.8248 8.97915 14.8457L14.3862 14.4281H19.5011C20.1691 14.4281 20.6702 14.7413 20.9416 15.3676V16.307L20.7328 16.0983C20.5032 16.0565 20.2735 15.973 20.0647 15.8477C19.7307 16.0565 19.5011 15.9104 19.2088 16.307C18.6451 16.3905 17.9771 15.6181 17.7265 15.1588C17.2255 15.1588 15.5762 15.3467 15.3466 15.5972C14.3027 15.5972 13.8852 17.163 13.5929 17.8728C13.0919 18.2277 13.1336 19.0419 12.7996 19.5429L12.6743 19.7935C12.5908 19.9187 12.5073 20.0649 12.4447 20.1901C12.3821 21.1087 11.2965 21.735 10.8163 22.4866C10.7954 22.7789 10.7746 22.8832 11.0042 23.0503C10.9416 23.8227 10.2526 24.2611 9.68896 24.6786C8.91652 25.7434 9.22967 25.6599 7.87268 25.7016C7.81005 25.7851 7.74742 25.8477 7.68479 25.9313C7.64303 26.8707 7.47602 26.6828 6.9541 27.1839C6.91234 27.497 6.87059 27.831 6.82884 28.1442C7.16287 28.1442 7.37163 28.0398 7.60128 27.8102C7.64303 27.8102 7.66391 27.8102 7.70566 27.8102C7.72654 27.9563 7.74742 28.1233 7.74742 28.2695C7.87268 28.2903 7.97706 28.3112 8.10232 28.3321C8.43635 28.8749 8.95827 28.3738 9.16704 28.8958C9.35493 29.0419 10.6702 29.021 10.8581 28.8958C10.8789 28.7914 10.8789 28.7914 11.0251 28.6661C11.5888 28.6661 12.2568 28.2068 12.7161 27.9146C13.1963 27.2465 13.9478 27.2047 14.5533 26.7037C14.8038 26.14 15.284 25.7016 15.9103 25.7225L16.1608 25.7851C16.6618 25.7851 17.1002 25.4093 17.5595 25.2214C18.5825 25.1588 19.1044 25.1797 18.4572 26.2653C18.2276 26.5158 18.2276 26.5158 17.1002 27.5388C16.8706 28.1233 16.8288 28.6035 16.7871 29.2089H2.56996C4.09397 33.8018 12.7787 33.948 16.808 31.0043C17.142 31.0461 17.5178 31.0878 17.81 31.2548C17.8518 31.6515 17.643 31.7976 17.9353 32.1108C18.499 32.1108 18.5825 31.1087 19.1879 31.8185C19.5846 31.7768 19.856 31.2757 20.1274 30.9834C20.19 30.9834 20.2735 30.9834 20.3361 30.9834C20.4823 31.2131 20.524 31.2548 20.7746 31.3384L20.9833 31.4636V35.2214H20.8372V35.3885L17.4551 34.7622V34.9292C15.7015 32.4448 10.4405 33.8645 10.8998 36.3905L11.9228 44.2194L19.0418 42.4031L18.0606 37.831L20.7954 37.4344V37.6223H21.0042V37.6014ZM22.5491 0.607666C27.7474 4.61602 33.1336 4.63689 38.7286 0.691173L44.595 8.89577L44.6159 39.1254C42.6326 62.0482 4.26099 65.6807 0.169128 39.2298V8.91664L6.1399 0.670297C11.3591 4.69952 16.8497 4.55339 22.5491 0.607666Z" fill="#181818"/>
</svg>
