<svg width="32" height="32" viewBox="0 0 32 32" fill="none" xmlns="http://www.w3.org/2000/svg">
<path d="M16 0C7.16345 0 0 7.16504 0 16.0007C0 24.8376 7.16345 32 16 32C24.8365 32 32 24.8376 32 16.0007C32 7.16504 24.8359 0 16 0ZM20.2344 15.9337H17.4639C17.4639 20.3613 17.4639 25.8148 17.4639 25.8148H13.3575C13.3575 25.8148 13.3575 20.4172 13.3575 15.9337H11.4043V12.4451H13.3575V10.1845C13.3575 8.5666 14.1255 6.04094 17.5022 6.04094L20.543 6.05263V9.4412C20.543 9.4412 18.6938 9.4412 18.3352 9.4412C17.9746 9.4412 17.4645 9.62118 17.4645 10.3905V12.4457H20.595L20.2344 15.9337Z" fill="#F2F2F2"/>
</svg>
