<svg width="15" height="15" viewBox="0 0 15 15" fill="none" xmlns="http://www.w3.org/2000/svg">
<path d="M0 5.38419V8.71752C0 9.17585 0.375 9.55085 0.833333 9.55085H3.33333L6.075 12.2925C6.6 12.8175 7.5 12.4425 7.5 11.7009V2.39252C7.5 1.65085 6.6 1.27585 6.075 1.80085L3.33333 4.55085H0.833333C0.375 4.55085 0 4.92585 0 5.38419ZM11.25 7.05085C11.25 5.57585 10.4 4.30919 9.16667 3.69252V10.4009C10.4 9.79252 11.25 8.52585 11.25 7.05085ZM9.16667 0.759185V0.925852C9.16667 1.24252 9.375 1.51752 9.66667 1.63419C11.8167 2.49252 13.3333 4.60085 13.3333 7.05085C13.3333 9.50085 11.8167 11.6092 9.66667 12.4675C9.36667 12.5842 9.16667 12.8592 9.16667 13.1759V13.3425C9.16667 13.8675 9.69167 14.2342 10.175 14.0509C13 12.9759 15 10.2509 15 7.05085C15 3.85085 13 1.12585 10.175 0.0508521C9.69167 -0.140815 9.16667 0.234185 9.16667 0.759185Z" fill="#888889"/>
</svg>
