<svg width="17" height="15" viewBox="0 0 17 15" fill="none" xmlns="http://www.w3.org/2000/svg">
<path d="M14.1667 4.16667H13.3333V0H3.33333V4.16667H2.5C1.11667 4.16667 0 5.28333 0 6.66667V11.6667H3.33333V15H13.3333V11.6667H16.6667V6.66667C16.6667 5.28333 15.55 4.16667 14.1667 4.16667ZM5 1.66667H11.6667V4.16667H5V1.66667ZM11.6667 11.6667V13.3333H5V10H11.6667V11.6667ZM13.3333 10V8.33333H3.33333V10H1.66667V6.66667C1.66667 6.20833 2.04167 5.83333 2.5 5.83333H14.1667C14.625 5.83333 15 6.20833 15 6.66667V10H13.3333Z" fill="#888889"/>
</svg>
