<svg width="24" height="25" viewBox="0 0 24 25" fill="none" xmlns="http://www.w3.org/2000/svg">
<path d="M17.0752 15.7H16.0087L15.6307 15.3355C16.9537 13.7965 17.7502 11.7985 17.7502 9.62498C17.7502 4.77848 13.8217 0.849976 8.97519 0.849976C4.1287 0.849976 0.200195 4.77848 0.200195 9.62498C0.200195 14.4715 4.1287 18.4 8.97519 18.4C11.1487 18.4 13.1467 17.6035 14.6857 16.2805L15.0502 16.6585V17.725L21.8002 24.4615L23.8117 22.45L17.0752 15.7ZM8.97519 15.7C5.6137 15.7 2.9002 12.9865 2.9002 9.62498C2.9002 6.26348 5.6137 3.54998 8.97519 3.54998C12.3367 3.54998 15.0502 6.26348 15.0502 9.62498C15.0502 12.9865 12.3367 15.7 8.97519 15.7Z" fill="white"/>
</svg>
