<svg width="16" height="17" viewBox="0 0 16 17" fill="none" xmlns="http://www.w3.org/2000/svg">
<path d="M13 0C11.6292 0 10.5 1.12916 10.5 2.5C10.5 2.65913 10.5182 2.81427 10.5472 2.96549L4.60156 6.43392C4.16545 6.06488 3.61006 5.83333 3 5.83333C1.62916 5.83333 0.5 6.96249 0.5 8.33333C0.5 9.70417 1.62916 10.8333 3 10.8333C3.61006 10.8333 4.16545 10.6018 4.60156 10.2327L10.5472 13.6995C10.518 13.8513 10.5 14.007 10.5 14.1667C10.5 15.5375 11.6292 16.6667 13 16.6667C14.3708 16.6667 15.5 15.5375 15.5 14.1667C15.5 12.7958 14.3708 11.6667 13 11.6667C12.3896 11.6667 11.8347 11.8994 11.3984 12.2689L5.4528 8.79883C5.48184 8.6476 5.5 8.49246 5.5 8.33333C5.5 8.17421 5.48184 8.01907 5.4528 7.86784L11.3984 4.39941C11.8345 4.76846 12.3899 5 13 5C14.3708 5 15.5 3.87084 15.5 2.5C15.5 1.12916 14.3708 0 13 0ZM13 1.66667C13.4701 1.66667 13.8333 2.02989 13.8333 2.5C13.8333 2.97011 13.4701 3.33333 13 3.33333C12.5299 3.33333 12.1667 2.97011 12.1667 2.5C12.1667 2.02989 12.5299 1.66667 13 1.66667ZM3 7.5C3.47011 7.5 3.83333 7.86323 3.83333 8.33333C3.83333 8.80344 3.47011 9.16667 3 9.16667C2.52989 9.16667 2.16667 8.80344 2.16667 8.33333C2.16667 7.86323 2.52989 7.5 3 7.5ZM13 13.3333C13.4701 13.3333 13.8333 13.6966 13.8333 14.1667C13.8333 14.6368 13.4701 15 13 15C12.5299 15 12.1667 14.6368 12.1667 14.1667C12.1667 13.6966 12.5299 13.3333 13 13.3333Z" fill="#888889"/>
</svg>
