<svg width="449" height="548" viewBox="0 0 449 548" fill="none" xmlns="http://www.w3.org/2000/svg">
<mask id="path-1-inside-1_1448_939" fill="white">
<path fill-rule="evenodd" clip-rule="evenodd" d="M35.2198 217.556C52.0916 180.769 68.7524 157.896 90.6857 162.376L68.9633 148.7C149.316 34.8037 306.644 40.2272 377.716 148.935L352.198 164.734C374.131 160.489 390.792 183.128 407.454 219.441L407.663 220.149H407.875L434.869 211.659C388.684 -27.214 66.6435 -30.2795 10.9667 210.245L35.2198 217.556ZM155.22 480.953V523.87C153.533 525.757 143.621 539.906 125.484 538.254H125.062C189.597 574.806 254.341 574.806 318.876 538.491H317.611C299.474 540.141 289.561 525.994 287.874 524.107V481.189C291.248 493.688 332.585 506.893 373.499 499.111L373.92 546.509C272.689 632.107 171.249 632.107 69.8069 546.272L70.2288 499.582L69.8069 498.64H70.2288V497.932L71.0724 498.64C111.354 506.421 151.846 493.451 155.22 480.953ZM220.387 381.442V348.43V381.442ZM256.662 313.765H416.733C392.269 366.35 274.799 374.368 256.662 313.765ZM210.475 407.853C210.264 409.975 211.319 412.097 213.849 411.862L212.584 412.568C209.632 414.927 209.421 421.294 213.849 420.823L212.584 421.529C209.632 423.888 209.421 430.255 213.849 429.782L212.584 430.49C209.632 432.849 209.421 439.215 213.849 438.743L212.584 439.451C209.632 441.81 209.421 448.176 213.849 447.704L212.584 448.412C209.632 450.77 209.421 457.136 213.849 456.665L212.584 457.373C209.843 459.731 208.999 465.862 214.482 464.918L213.638 465.389C211.951 465.626 210.054 466.097 208.577 466.569C206.258 467.04 205.835 471.286 208.788 471.757C206.889 471.993 207.101 475.766 208.577 477.417C213.638 483.783 228.191 483.783 232.619 477.18C234.095 475.058 234.729 471.993 232.83 471.757C235.783 471.286 235.783 467.277 232.619 466.334C231.143 465.862 229.878 465.626 228.402 465.389C230.932 462.796 231.354 458.316 227.98 456.665C230.721 454.307 231.354 449.12 227.98 447.704C230.721 445.346 231.354 440.159 227.98 438.743C230.721 436.386 231.354 431.198 227.98 429.782C230.721 427.425 231.354 422.237 227.98 420.823C230.721 418.465 231.354 413.276 227.98 411.862C229.245 410.683 230.089 409.032 230.3 407.617H232.619V405.495L260.247 409.975L250.546 462.088L322.462 482.605L332.796 394.175C337.435 365.878 285.133 349.844 266.996 377.198V375.782L232.83 382.857V395.355V380.735H231.354V349.372H231.776C235.994 349.372 235.994 349.372 236.627 350.08C239.368 348.193 239.368 345.363 240.844 342.062C246.328 337.582 247.804 334.517 241.266 332.393C240.844 328.149 242.531 324.848 243.798 320.604C247.593 319.896 252.234 323.669 249.069 314.708C243.164 309.048 243.587 306.926 245.063 297.966C246.75 297.731 246.75 298.202 248.015 299.616C253.287 299.145 255.397 293.014 259.825 289.712C260.458 289.949 261.09 290.42 261.934 290.655C261.934 295.609 261.09 299.853 265.52 301.975C265.52 302.211 265.52 302.446 265.52 302.682C268.261 303.862 271.002 305.276 273.323 302.682C281.336 303.154 284.5 305.747 291.67 310.464C293.569 310.464 295.467 310.464 297.365 310.464C300.106 309.048 303.059 307.398 305.801 305.984C309.807 305.747 332.163 309.521 333.007 310.464C333.428 310.464 333.85 310.699 334.483 310.699C334.905 310.699 335.115 310.935 335.537 310.935C344.606 310.935 353.885 310.935 362.954 310.935C366.328 310.699 369.703 310.699 373.077 310.699H373.288C375.818 305.276 376.451 299.381 372.655 294.664C368.858 294.193 368.858 294.193 368.227 293.485C368.438 292.071 368.438 292.071 369.703 290.892C372.023 285.94 369.703 284.289 366.328 281.459C361.9 267.547 359.791 252.926 355.361 239.013C354.518 231.232 353.885 223.215 351.777 215.668C347.98 209.302 343.973 203.171 340.387 196.804C339.545 190.201 338.489 187.372 332.163 185.958C330.687 182.183 328.999 181.712 325.836 180.061L323.727 179.119C316.135 177.703 307.699 178.176 300.74 173.695C292.726 173.695 284.922 167.799 278.806 175.581C270.792 176.052 262.777 176.76 254.975 177.232C252.234 175.346 250.967 175.346 246.328 172.28C245.695 172.516 245.695 172.516 244.641 174.875C241.688 175.11 238.736 175.346 235.994 175.346C234.94 176.289 233.252 177.232 231.987 177.232V157.424C234.94 149.878 239.79 145.87 246.961 145.87H298.63L353.253 150.585C359.58 150.35 361.056 142.096 355.361 139.739L327.945 126.769C315.08 119.223 315.08 132.192 306.223 133.608L230.721 133.843V105.782L220.387 74.1837V176.052V74.1837L210.054 105.782V134.079L134.974 133.608C126.116 132.192 126.327 119.223 114.306 127.005L86.8896 139.974C81.4062 142.332 82.6717 150.585 88.9985 150.822L143.621 146.105H195.29C202.039 146.105 207.1 149.643 209.843 156.716V167.328L207.734 164.969C205.413 164.498 203.094 163.555 200.985 162.14C197.611 164.498 195.29 162.847 192.338 167.328C186.643 168.271 179.895 159.546 177.365 154.358C172.303 154.358 155.642 156.481 153.322 159.311C142.777 159.311 138.559 176.997 135.607 185.013C130.546 189.022 130.966 198.22 127.592 203.878L126.327 206.708C125.484 208.123 124.64 209.774 124.008 211.188C123.375 221.565 112.408 228.638 107.557 237.128C107.347 240.429 107.136 241.608 109.456 243.494C108.823 252.22 101.863 257.172 96.1691 261.887C88.3659 273.914 91.5293 272.97 77.8211 273.441C77.1883 274.386 76.5556 275.092 75.923 276.036C75.5011 286.648 73.8139 284.524 68.5416 290.184C68.1197 293.721 67.698 297.494 67.2761 301.032C70.6505 301.032 72.7595 299.853 75.0794 297.259C75.5011 297.259 75.712 297.259 76.1339 297.259C76.3447 298.91 76.5556 300.795 76.5556 302.446C77.8211 302.682 78.8755 302.917 80.1409 303.154C83.5153 309.285 88.7877 303.625 90.8966 309.521C92.7947 311.172 106.081 310.935 107.979 309.521C108.19 308.342 108.19 308.342 109.667 306.926C115.361 306.926 122.109 301.74 126.749 298.437C131.6 290.892 139.193 290.42 145.308 284.761C147.838 278.395 152.69 273.441 159.017 273.678L161.547 274.386C166.608 274.386 171.038 270.14 175.677 268.018C186.011 267.31 191.284 267.547 184.746 279.809C182.426 282.639 182.426 282.639 171.038 294.193C168.718 300.795 168.295 306.22 167.875 313.057H24.2531C39.6487 364.936 127.382 366.586 168.084 333.338C171.459 333.809 175.255 334.28 178.207 336.168C178.63 340.648 176.52 342.299 179.474 345.835C185.167 345.835 186.011 334.517 192.127 342.533C196.135 342.062 198.876 336.402 201.618 333.101C202.25 333.101 203.094 333.101 203.726 333.101C205.202 335.696 205.624 336.167 208.156 337.11L210.264 338.524V380.97H208.788V382.857L174.623 375.782V377.669C156.907 349.609 103.761 365.644 108.401 394.175L118.735 482.605L190.651 462.088L180.739 410.446L208.367 405.966V408.088H210.475V407.853ZM226.082 -10C278.595 35.2752 333.007 35.511 389.527 -9.05677L448.789 83.6161L449 425.067C428.965 683.985 41.3358 725.016 0 426.246V83.8518L60.3165 -9.29262C113.041 36.2184 168.507 34.5678 226.082 -10Z"/>
</mask>
<path fill-rule="evenodd" clip-rule="evenodd" d="M35.2198 217.556C52.0916 180.769 68.7524 157.896 90.6857 162.376L68.9633 148.7C149.316 34.8037 306.644 40.2272 377.716 148.935L352.198 164.734C374.131 160.489 390.792 183.128 407.454 219.441L407.663 220.149H407.875L434.869 211.659C388.684 -27.214 66.6435 -30.2795 10.9667 210.245L35.2198 217.556ZM155.22 480.953V523.87C153.533 525.757 143.621 539.906 125.484 538.254H125.062C189.597 574.806 254.341 574.806 318.876 538.491H317.611C299.474 540.141 289.561 525.994 287.874 524.107V481.189C291.248 493.688 332.585 506.893 373.499 499.111L373.92 546.509C272.689 632.107 171.249 632.107 69.8069 546.272L70.2288 499.582L69.8069 498.64H70.2288V497.932L71.0724 498.64C111.354 506.421 151.846 493.451 155.22 480.953ZM220.387 381.442V348.43V381.442ZM256.662 313.765H416.733C392.269 366.35 274.799 374.368 256.662 313.765ZM210.475 407.853C210.264 409.975 211.319 412.097 213.849 411.862L212.584 412.568C209.632 414.927 209.421 421.294 213.849 420.823L212.584 421.529C209.632 423.888 209.421 430.255 213.849 429.782L212.584 430.49C209.632 432.849 209.421 439.215 213.849 438.743L212.584 439.451C209.632 441.81 209.421 448.176 213.849 447.704L212.584 448.412C209.632 450.77 209.421 457.136 213.849 456.665L212.584 457.373C209.843 459.731 208.999 465.862 214.482 464.918L213.638 465.389C211.951 465.626 210.054 466.097 208.577 466.569C206.258 467.04 205.835 471.286 208.788 471.757C206.889 471.993 207.101 475.766 208.577 477.417C213.638 483.783 228.191 483.783 232.619 477.18C234.095 475.058 234.729 471.993 232.83 471.757C235.783 471.286 235.783 467.277 232.619 466.334C231.143 465.862 229.878 465.626 228.402 465.389C230.932 462.796 231.354 458.316 227.98 456.665C230.721 454.307 231.354 449.12 227.98 447.704C230.721 445.346 231.354 440.159 227.98 438.743C230.721 436.386 231.354 431.198 227.98 429.782C230.721 427.425 231.354 422.237 227.98 420.823C230.721 418.465 231.354 413.276 227.98 411.862C229.245 410.683 230.089 409.032 230.3 407.617H232.619V405.495L260.247 409.975L250.546 462.088L322.462 482.605L332.796 394.175C337.435 365.878 285.133 349.844 266.996 377.198V375.782L232.83 382.857V395.355V380.735H231.354V349.372H231.776C235.994 349.372 235.994 349.372 236.627 350.08C239.368 348.193 239.368 345.363 240.844 342.062C246.328 337.582 247.804 334.517 241.266 332.393C240.844 328.149 242.531 324.848 243.798 320.604C247.593 319.896 252.234 323.669 249.069 314.708C243.164 309.048 243.587 306.926 245.063 297.966C246.75 297.731 246.75 298.202 248.015 299.616C253.287 299.145 255.397 293.014 259.825 289.712C260.458 289.949 261.09 290.42 261.934 290.655C261.934 295.609 261.09 299.853 265.52 301.975C265.52 302.211 265.52 302.446 265.52 302.682C268.261 303.862 271.002 305.276 273.323 302.682C281.336 303.154 284.5 305.747 291.67 310.464C293.569 310.464 295.467 310.464 297.365 310.464C300.106 309.048 303.059 307.398 305.801 305.984C309.807 305.747 332.163 309.521 333.007 310.464C333.428 310.464 333.85 310.699 334.483 310.699C334.905 310.699 335.115 310.935 335.537 310.935C344.606 310.935 353.885 310.935 362.954 310.935C366.328 310.699 369.703 310.699 373.077 310.699H373.288C375.818 305.276 376.451 299.381 372.655 294.664C368.858 294.193 368.858 294.193 368.227 293.485C368.438 292.071 368.438 292.071 369.703 290.892C372.023 285.94 369.703 284.289 366.328 281.459C361.9 267.547 359.791 252.926 355.361 239.013C354.518 231.232 353.885 223.215 351.777 215.668C347.98 209.302 343.973 203.171 340.387 196.804C339.545 190.201 338.489 187.372 332.163 185.958C330.687 182.183 328.999 181.712 325.836 180.061L323.727 179.119C316.135 177.703 307.699 178.176 300.74 173.695C292.726 173.695 284.922 167.799 278.806 175.581C270.792 176.052 262.777 176.76 254.975 177.232C252.234 175.346 250.967 175.346 246.328 172.28C245.695 172.516 245.695 172.516 244.641 174.875C241.688 175.11 238.736 175.346 235.994 175.346C234.94 176.289 233.252 177.232 231.987 177.232V157.424C234.94 149.878 239.79 145.87 246.961 145.87H298.63L353.253 150.585C359.58 150.35 361.056 142.096 355.361 139.739L327.945 126.769C315.08 119.223 315.08 132.192 306.223 133.608L230.721 133.843V105.782L220.387 74.1837V176.052V74.1837L210.054 105.782V134.079L134.974 133.608C126.116 132.192 126.327 119.223 114.306 127.005L86.8896 139.974C81.4062 142.332 82.6717 150.585 88.9985 150.822L143.621 146.105H195.29C202.039 146.105 207.1 149.643 209.843 156.716V167.328L207.734 164.969C205.413 164.498 203.094 163.555 200.985 162.14C197.611 164.498 195.29 162.847 192.338 167.328C186.643 168.271 179.895 159.546 177.365 154.358C172.303 154.358 155.642 156.481 153.322 159.311C142.777 159.311 138.559 176.997 135.607 185.013C130.546 189.022 130.966 198.22 127.592 203.878L126.327 206.708C125.484 208.123 124.64 209.774 124.008 211.188C123.375 221.565 112.408 228.638 107.557 237.128C107.347 240.429 107.136 241.608 109.456 243.494C108.823 252.22 101.863 257.172 96.1691 261.887C88.3659 273.914 91.5293 272.97 77.8211 273.441C77.1883 274.386 76.5556 275.092 75.923 276.036C75.5011 286.648 73.8139 284.524 68.5416 290.184C68.1197 293.721 67.698 297.494 67.2761 301.032C70.6505 301.032 72.7595 299.853 75.0794 297.259C75.5011 297.259 75.712 297.259 76.1339 297.259C76.3447 298.91 76.5556 300.795 76.5556 302.446C77.8211 302.682 78.8755 302.917 80.1409 303.154C83.5153 309.285 88.7877 303.625 90.8966 309.521C92.7947 311.172 106.081 310.935 107.979 309.521C108.19 308.342 108.19 308.342 109.667 306.926C115.361 306.926 122.109 301.74 126.749 298.437C131.6 290.892 139.193 290.42 145.308 284.761C147.838 278.395 152.69 273.441 159.017 273.678L161.547 274.386C166.608 274.386 171.038 270.14 175.677 268.018C186.011 267.31 191.284 267.547 184.746 279.809C182.426 282.639 182.426 282.639 171.038 294.193C168.718 300.795 168.295 306.22 167.875 313.057H24.2531C39.6487 364.936 127.382 366.586 168.084 333.338C171.459 333.809 175.255 334.28 178.207 336.168C178.63 340.648 176.52 342.299 179.474 345.835C185.167 345.835 186.011 334.517 192.127 342.533C196.135 342.062 198.876 336.402 201.618 333.101C202.25 333.101 203.094 333.101 203.726 333.101C205.202 335.696 205.624 336.167 208.156 337.11L210.264 338.524V380.97H208.788V382.857L174.623 375.782V377.669C156.907 349.609 103.761 365.644 108.401 394.175L118.735 482.605L190.651 462.088L180.739 410.446L208.367 405.966V408.088H210.475V407.853ZM226.082 -10C278.595 35.2752 333.007 35.511 389.527 -9.05677L448.789 83.6161L449 425.067C428.965 683.985 41.3358 725.016 0 426.246V83.8518L60.3165 -9.29262C113.041 36.2184 168.507 34.5678 226.082 -10Z" stroke="#E3E3E3" stroke-width="2" mask="url(#path-1-inside-1_1448_939)"/>
</svg>
