<svg width="51" height="73" viewBox="0 0 51 73" fill="none" xmlns="http://www.w3.org/2000/svg">
<path fill-rule="evenodd" clip-rule="evenodd" d="M4.00047 25.7508C5.91686 21.588 7.80929 18.9995 10.3006 19.5066L7.83325 17.9589C16.9601 5.07011 34.8304 5.68385 42.9032 17.9855L40.0046 19.7735C42.496 19.293 44.3884 21.8549 46.2809 25.9642L46.3048 26.0443H46.3287L49.395 25.0836C44.1489 -1.94799 7.56975 -2.29489 1.24566 24.9236L4.00047 25.7508ZM17.6308 55.5576V60.4143C17.4392 60.6278 16.3133 62.229 14.2532 62.042H14.2052C21.5355 66.1783 28.8896 66.1783 36.2198 62.0688H36.0761C34.016 62.2555 32.89 60.6546 32.6984 60.441V55.5844C33.0817 56.9987 37.7769 58.493 42.4242 57.6124L42.472 62.9761C30.9736 72.6627 19.4514 72.6627 7.92907 62.9494L7.97699 57.6658L7.92907 57.5591H7.97699V57.479L8.07281 57.5591C12.6482 58.4397 17.2475 56.972 17.6308 55.5576ZM25.0328 44.2967V40.5609V44.2967ZM29.1531 36.6382H47.3349C44.5562 42.5888 31.2132 43.4962 29.1531 36.6382ZM23.9069 47.2854C23.883 47.5256 24.0028 47.7657 24.2902 47.7391L24.1465 47.819C23.8112 48.0859 23.7872 48.8065 24.2902 48.7531L24.1465 48.8331C23.8112 49.1 23.7872 49.8205 24.2902 49.767L24.1465 49.8471C23.8112 50.114 23.7872 50.8344 24.2902 50.7811L24.1465 50.8612C23.8112 51.128 23.7872 51.8484 24.2902 51.7951L24.1465 51.8752C23.8112 52.1421 23.7872 52.8625 24.2902 52.8091L24.1465 52.8892C23.8352 53.1561 23.7393 53.8499 24.3621 53.7431L24.2662 53.7964C24.0746 53.8232 23.8592 53.8765 23.6913 53.9299C23.4279 53.9832 23.38 54.4636 23.7153 54.517C23.4997 54.5437 23.5237 54.9707 23.6913 55.1574C24.2662 55.8778 25.9192 55.8778 26.4222 55.1307C26.5899 54.8906 26.6618 54.5437 26.4462 54.517C26.7815 54.4636 26.7815 54.01 26.4222 53.9033C26.2546 53.8499 26.1109 53.8232 25.9432 53.7964C26.2306 53.5029 26.2785 52.9959 25.8953 52.8091C26.2066 52.5422 26.2785 51.9553 25.8953 51.7951C26.2066 51.5282 26.2785 50.9413 25.8953 50.7811C26.2066 50.5143 26.2785 49.9272 25.8953 49.767C26.2066 49.5003 26.2785 48.9132 25.8953 48.7531C26.2066 48.4863 26.2785 47.8991 25.8953 47.7391C26.039 47.6057 26.1348 47.4189 26.1588 47.2587H26.4222V47.0185L29.5604 47.5256L28.4585 53.4228L36.6271 55.7446L37.8009 45.7376C38.3278 42.5355 32.387 40.7209 30.3269 43.8164V43.6562L26.4462 44.4569V45.8711V44.2167H26.2785V40.6676H26.3265C26.8055 40.6676 26.8055 40.6676 26.8774 40.7477C27.1888 40.5341 27.1888 40.2139 27.3565 39.8403C27.9793 39.3333 28.147 38.9865 27.4044 38.7462C27.3564 38.2659 27.5481 37.8924 27.6919 37.4121C28.123 37.332 28.6501 37.7589 28.2907 36.7449C27.62 36.1044 27.668 35.8643 27.8356 34.8503C28.0273 34.8237 28.0273 34.877 28.171 35.037C28.7698 34.9837 29.0094 34.2899 29.5124 33.9163C29.5844 33.9431 29.6561 33.9964 29.752 34.023C29.752 34.5835 29.6561 35.0638 30.1593 35.3039C30.1593 35.3307 30.1593 35.3573 30.1593 35.384C30.4706 35.5175 30.782 35.6775 31.0455 35.384C31.9558 35.4374 32.3151 35.7308 33.1296 36.2646C33.3452 36.2646 33.5608 36.2646 33.7764 36.2646C34.0878 36.1044 34.4231 35.9176 34.7346 35.7576C35.1897 35.7308 37.7289 36.1579 37.8248 36.2646C37.8726 36.2646 37.9206 36.2912 37.9925 36.2912C38.0405 36.2912 38.0643 36.318 38.1122 36.318C39.1423 36.318 40.1963 36.318 41.2264 36.318C41.6097 36.2912 41.993 36.2912 42.3762 36.2912H42.4002C42.6876 35.6775 42.7595 35.0105 42.3283 34.4767C41.8971 34.4233 41.8971 34.4233 41.8253 34.3432C41.8493 34.1832 41.8493 34.1832 41.993 34.0498C42.2565 33.4894 41.993 33.3026 41.6097 32.9824C41.1067 31.408 40.8671 29.7535 40.3639 28.1791C40.2682 27.2985 40.1963 26.3913 39.9568 25.5373C39.5256 24.8169 39.0704 24.1231 38.6632 23.4025C38.5674 22.6554 38.4476 22.3351 37.7289 22.1751C37.5613 21.748 37.3696 21.6947 37.0103 21.5079L36.7707 21.4012C35.9085 21.241 34.9503 21.2945 34.1597 20.7875C33.2495 20.7875 32.363 20.1203 31.6684 21.0009C30.7582 21.0542 29.8478 21.1343 28.9615 21.1877C28.6501 20.9743 28.5063 20.9743 27.9793 20.6273C27.9074 20.654 27.9074 20.654 27.7877 20.9209C27.4523 20.9475 27.117 20.9743 26.8055 20.9743C26.6858 21.081 26.4942 21.1877 26.3505 21.1877V18.9462C26.6858 18.0922 27.2367 17.6387 28.0512 17.6387H33.9201L40.1245 18.1723C40.8431 18.1457 41.0108 17.2116 40.3639 16.9449L37.2499 15.4772C35.7886 14.6233 35.7886 16.0909 34.7826 16.2511L26.2066 16.2777V13.1022L25.0328 9.52646V21.0542V9.52646L23.8592 13.1022V16.3044L15.3311 16.2511C14.325 16.0909 14.349 14.6233 12.9836 15.5039L9.86942 16.9715C9.24659 17.2384 9.39032 18.1723 10.109 18.199L16.3133 17.6653H22.1822C22.9487 17.6653 23.5237 18.0656 23.8352 18.8661V20.0669L23.5956 19.8C23.332 19.7467 23.0686 19.64 22.829 19.4798C22.4458 19.7467 22.1822 19.5599 21.8469 20.0669C21.2 20.1736 20.4335 19.1863 20.1461 18.5992C19.5712 18.5992 17.6787 18.8395 17.4152 19.1597C16.2174 19.1597 15.7384 21.1611 15.403 22.0682C14.8281 22.5219 14.8759 23.5627 14.4926 24.203L14.349 24.5232C14.2532 24.6834 14.1573 24.8702 14.0855 25.0303C14.0136 26.2045 12.768 27.005 12.217 27.9657C12.193 28.3393 12.1691 28.4727 12.4326 28.6861C12.3607 29.6735 11.5702 30.2339 10.9234 30.7675C10.0371 32.1285 10.3964 32.0217 8.83937 32.075C8.76749 32.1819 8.69563 32.2618 8.62377 32.3687C8.57585 33.5695 8.38421 33.3292 7.78535 33.9697C7.73743 34.37 7.68953 34.7969 7.64161 35.1972C8.02489 35.1972 8.26445 35.0638 8.52795 34.7703C8.57585 34.7703 8.59981 34.7703 8.64773 34.7703C8.67167 34.9571 8.69563 35.1705 8.69563 35.3573C8.83937 35.384 8.95913 35.4106 9.10287 35.4374C9.48614 36.1312 10.085 35.4907 10.3246 36.1579C10.5402 36.3447 12.0493 36.318 12.2649 36.1579C12.2889 36.0245 12.2889 36.0245 12.4566 35.8643C13.1033 35.8643 13.8699 35.2773 14.3969 34.9036C14.9478 34.0498 15.8103 33.9964 16.5049 33.3559C16.7923 32.6356 17.3434 32.075 18.062 32.1018L18.3494 32.1819C18.9243 32.1819 19.4275 31.7014 19.9544 31.4613C21.1283 31.3812 21.7271 31.408 20.9846 32.7956C20.721 33.1158 20.721 33.1158 19.4275 34.4233C19.1639 35.1705 19.116 35.7844 19.0682 36.5581H2.75481C4.50352 42.4288 14.4688 42.6156 19.092 38.8531C19.4753 38.9064 19.9065 38.9597 20.2418 39.1733C20.2898 39.6803 20.0502 39.8671 20.3857 40.2673C21.0324 40.2673 21.1283 38.9865 21.8229 39.8937C22.2781 39.8403 22.5894 39.1999 22.901 38.8263C22.9727 38.8263 23.0686 38.8263 23.1404 38.8263C23.3081 39.1199 23.356 39.1733 23.6435 39.28L23.883 39.44V44.2433H23.7153V44.4569L19.8347 43.6562V43.8697C17.8224 40.6944 11.7858 42.5089 12.3128 45.7376L13.4866 55.7446L21.6552 53.4228L20.5294 47.5789L23.6675 47.0719V47.312H23.9069V47.2854ZM25.6796 0C31.6444 5.12347 37.8248 5.15016 44.2447 0.106738L50.976 10.5939L51 49.2334C48.7243 78.5333 4.69516 83.1764 0 49.3669V10.6205L6.8511 0.0800494C12.8398 5.23021 19.1399 5.04342 25.6796 0Z" fill="#F3F3F3"/>
</svg>
