<svg width="53" height="53" viewBox="0 0 53 53" fill="none" xmlns="http://www.w3.org/2000/svg">
<path d="M8.53125 0.625C8.02902 0.625269 7.53562 0.757082 7.10018 1.00732C6.66473 1.25755 6.30242 1.61748 6.04932 2.05127L1.01807 10.6763C0.761075 11.1159 0.62543 11.6158 0.625 12.125V46.625C0.625 49.7676 3.23244 52.375 6.375 52.375H46.625C49.7676 52.375 52.375 49.7676 52.375 46.625V12.125C52.3746 11.6158 52.2389 11.1159 51.9819 10.6763L46.9507 2.05127C46.6976 1.61748 46.3353 1.25755 45.8998 1.00732C45.4644 0.757082 44.971 0.625269 44.4688 0.625H8.53125ZM10.1821 6.375H42.8179L46.1702 12.125H6.82983L10.1821 6.375ZM6.375 17.875H46.625V46.625H6.375V17.875ZM17.875 23.625V29.375H35.125V23.625H17.875Z" fill="#C9E880"/>
</svg>
